<svg width="1730" height="363" viewBox="0 0 1730 363" fill="none" xmlns="http://www.w3.org/2000/svg">
<g filter="url(#filter0_d_175_948)">
<path d="M264.296 152.678H210.219C209.836 148.203 208.813 144.144 207.151 140.501C205.553 136.857 203.316 133.725 200.439 131.104C197.627 128.42 194.207 126.374 190.18 124.968C186.153 123.498 181.583 122.763 176.469 122.763C167.52 122.763 159.946 124.936 153.746 129.283C147.609 133.629 142.943 139.861 139.747 147.979C136.615 156.097 135.049 165.845 135.049 177.223C135.049 189.24 136.647 199.307 139.843 207.425C143.103 215.479 147.801 221.552 153.937 225.643C160.074 229.67 167.456 231.683 176.086 231.683C181.008 231.683 185.418 231.076 189.317 229.861C193.216 228.583 196.604 226.761 199.481 224.396C202.357 222.031 204.69 219.187 206.48 215.863C208.334 212.475 209.58 208.672 210.219 204.453L264.296 204.837C263.657 213.146 261.324 221.616 257.297 230.245C253.27 238.81 247.549 246.736 240.134 254.023C232.783 261.246 223.675 267.063 212.808 271.474C201.942 275.884 189.317 278.089 174.935 278.089C156.91 278.089 140.738 274.222 126.42 266.488C112.165 258.754 100.883 247.376 92.5737 232.354C84.3279 217.333 80.2051 198.956 80.2051 177.223C80.2051 155.362 84.4238 136.953 92.8613 121.996C101.299 106.974 112.677 95.6285 126.995 87.958C141.313 80.2237 157.293 76.3565 174.935 76.3565C187.336 76.3565 198.746 78.0504 209.165 81.4382C219.584 84.8259 228.724 89.7798 236.586 96.2997C244.449 102.756 250.777 110.714 255.571 120.174C260.365 129.634 263.273 140.469 264.296 152.678ZM272.282 275.405V79.0411H357.04C371.614 79.0411 384.366 81.6938 395.297 86.9992C406.227 92.3046 414.729 99.9431 420.801 109.915C426.873 119.886 429.91 131.839 429.91 145.774C429.91 159.837 426.778 171.694 420.513 181.346C414.313 190.998 405.588 198.285 394.338 203.207C383.152 208.129 370.08 210.589 355.123 210.589H304.498V169.169H344.384C350.648 169.169 355.986 168.402 360.396 166.868C364.871 165.27 368.29 162.745 370.655 159.293C373.084 155.842 374.299 151.335 374.299 145.774C374.299 140.149 373.084 135.579 370.655 132.063C368.29 128.484 364.871 125.863 360.396 124.201C355.986 122.475 350.648 121.612 344.384 121.612H325.592V275.405H272.282ZM387.339 185.277L436.43 275.405H378.518L330.577 185.277H387.339ZM487.442 275.405H429.914L494.729 79.0411H567.598L632.414 275.405H574.885L531.931 133.118H530.397L487.442 275.405ZM476.703 197.933H584.857V237.82H476.703V197.933ZM635.126 275.405V79.0411H773.194V121.996H688.436V155.746H764.757V198.7H688.436V275.405H635.126ZM771.232 121.996V79.0411H941.9V121.996H882.838V275.405H830.295V121.996H771.232ZM1119.86 152.678H1065.78C1065.4 148.203 1064.38 144.144 1062.71 140.501C1061.12 136.857 1058.88 133.725 1056 131.104C1053.19 128.42 1049.77 126.374 1045.74 124.968C1041.72 123.498 1037.15 122.763 1032.03 122.763C1023.08 122.763 1015.51 124.936 1009.31 129.283C1003.17 133.629 998.505 139.861 995.309 147.979C992.177 156.097 990.611 165.845 990.611 177.223C990.611 189.24 992.209 199.307 995.405 207.425C998.665 215.479 1003.36 221.552 1009.5 225.643C1015.64 229.67 1023.02 231.683 1031.65 231.683C1036.57 231.683 1040.98 231.076 1044.88 229.861C1048.78 228.583 1052.17 226.761 1055.04 224.396C1057.92 222.031 1060.25 219.187 1062.04 215.863C1063.9 212.475 1065.14 208.672 1065.78 204.453L1119.86 204.837C1119.22 213.146 1116.89 221.616 1112.86 230.245C1108.83 238.81 1103.11 246.736 1095.7 254.023C1088.35 261.246 1079.24 267.063 1068.37 271.474C1057.5 275.884 1044.88 278.089 1030.5 278.089C1012.47 278.089 996.3 274.222 981.982 266.488C967.728 258.754 956.446 247.376 948.136 232.354C939.89 217.333 935.768 198.956 935.768 177.223C935.768 155.362 939.986 136.953 948.424 121.996C956.861 106.974 968.239 95.6285 982.557 87.958C996.876 80.2237 1012.86 76.3565 1030.5 76.3565C1042.9 76.3565 1054.31 78.0504 1064.73 81.4382C1075.15 84.8259 1084.29 89.7798 1092.15 96.2997C1100.01 102.756 1106.34 110.714 1111.13 120.174C1115.93 129.634 1118.84 140.469 1119.86 152.678ZM1318.07 177.223C1318.07 199.084 1313.82 217.525 1305.32 232.546C1296.82 247.504 1285.34 258.849 1270.9 266.584C1256.45 274.254 1240.34 278.089 1222.57 278.089C1204.68 278.089 1188.5 274.222 1174.06 266.488C1159.68 258.69 1148.24 247.312 1139.73 232.354C1131.3 217.333 1127.08 198.956 1127.08 177.223C1127.08 155.362 1131.3 136.953 1139.73 121.996C1148.24 106.974 1159.68 95.6285 1174.06 87.958C1188.5 80.2237 1204.68 76.3565 1222.57 76.3565C1240.34 76.3565 1256.45 80.2237 1270.9 87.958C1285.34 95.6285 1296.82 106.974 1305.32 121.996C1313.82 136.953 1318.07 155.362 1318.07 177.223ZM1263.23 177.223C1263.23 165.462 1261.66 155.554 1258.53 147.5C1255.46 139.382 1250.89 133.246 1244.82 129.091C1238.81 124.872 1231.4 122.763 1222.57 122.763C1213.75 122.763 1206.31 124.872 1200.23 129.091C1194.23 133.246 1189.66 139.382 1186.52 147.5C1183.46 155.554 1181.92 165.462 1181.92 177.223C1181.92 188.984 1183.46 198.924 1186.52 207.042C1189.66 215.096 1194.23 221.232 1200.23 225.451C1206.31 229.606 1213.75 231.683 1222.57 231.683C1231.4 231.683 1238.81 229.606 1244.82 225.451C1250.89 221.232 1255.46 215.096 1258.53 207.042C1261.66 198.924 1263.23 188.984 1263.23 177.223ZM1402.09 275.405H1326.54V79.0411H1401.32C1421.52 79.0411 1438.97 82.9723 1453.67 90.8345C1468.44 98.6328 1479.82 109.883 1487.81 124.584C1495.86 139.222 1499.89 156.768 1499.89 177.223C1499.89 197.678 1495.89 215.256 1487.9 229.957C1479.91 244.595 1468.6 255.845 1453.96 263.707C1439.32 271.506 1422.03 275.405 1402.09 275.405ZM1379.85 230.149H1400.17C1409.89 230.149 1418.17 228.583 1425.01 225.451C1431.91 222.319 1437.15 216.918 1440.73 209.247C1444.37 201.577 1446.2 190.902 1446.2 177.223C1446.2 163.544 1444.34 152.869 1440.63 145.199C1436.99 137.528 1431.62 132.127 1424.53 128.995C1417.5 125.863 1408.87 124.297 1398.64 124.297H1379.85V230.149ZM1508.35 275.405V79.0411H1649.87V121.996H1561.66V155.746H1642.59V198.7H1561.66V232.45H1649.49V275.405H1508.35Z" fill="white"/>
</g>
<defs>
<filter id="filter0_d_175_948" x="0.205078" y="0.356445" width="1729.67" height="361.733" filterUnits="userSpaceOnUse" color-interpolation-filters="sRGB">
<feFlood flood-opacity="0" result="BackgroundImageFix"/>
<feColorMatrix in="SourceAlpha" type="matrix" values="0 0 0 0 0 0 0 0 0 0 0 0 0 0 0 0 0 0 127 0" result="hardAlpha"/>
<feOffset dy="4"/>
<feGaussianBlur stdDeviation="40"/>
<feComposite in2="hardAlpha" operator="out"/>
<feColorMatrix type="matrix" values="0 0 0 0 0 0 0 0 0 0 0 0 0 0 0 0 0 0 0.05 0"/>
<feBlend mode="normal" in2="BackgroundImageFix" result="effect1_dropShadow_175_948"/>
<feBlend mode="normal" in="SourceGraphic" in2="effect1_dropShadow_175_948" result="shape"/>
</filter>
</defs>
</svg>
